<?xml version="1.0" encoding="UTF-8"?>
<svg width="313px" height="119px" viewBox="0 0 313 119" version="1.1" xmlns="http://www.w3.org/2000/svg" xmlns:xlink="http://www.w3.org/1999/xlink">
    <!-- Generator: Sketch 51.1 (57501) - http://www.bohemiancoding.com/sketch -->
    <title>TU_Logo_text</title>
    <desc>Created with Sketch.</desc>
    <defs></defs>
    <g id="Page-1" stroke="none" stroke-width="1" fill="none" fill-rule="evenodd" >
        <g id="1024-inso-003" transform="translate(-648.000000, -219.000000)" fill="#000000">
            <g id="TU_Logo" transform="translate(648.000000, 219.000000)">
                <path d="M255.735213,64.5684083 C255.735213,68.3910224 252.610961,70.6676803 248.257178,70.6676803 C245.131358,70.6676803 242.881834,69.9380224 240.896191,67.9244171 L242.999405,65.8523557 C244.517899,67.3701276 246.183749,67.8367329 248.315702,67.8367329 C251.032375,67.8367329 252.610961,66.6696978 252.610961,64.6560925 C252.610961,63.7510662 252.347079,62.9921803 251.792667,62.4963469 C251.265949,62.0005136 250.740276,61.7959171 249.512836,61.6215925 L247.058999,61.2713776 C245.364933,61.0375531 244.020966,60.4540355 243.114886,59.6074654 C242.093325,58.6439829 241.596914,57.3318513 241.596914,55.638711 C241.596914,52.0201715 244.226323,49.539961 248.550322,49.539961 C251.295734,49.539961 253.223375,50.2403908 255.004706,51.9043031 L252.989801,53.8881583 C251.704881,52.6626671 250.215126,52.2832241 248.46149,52.2832241 C246.007131,52.2832241 244.66421,53.6840838 244.66421,55.5217987 C244.66421,56.2812066 244.896739,56.9518864 245.451674,57.4482417 C245.978392,57.9148469 246.825425,58.2650618 247.790029,58.4112022 L250.156602,58.761939 C252.084766,59.0536978 253.166418,59.5197811 254.042191,60.3078952 C255.180801,61.3000838 255.735213,62.7886276 255.735213,64.5684083 Z M238.765962,70.492625 L235.084685,70.492625 L230.702163,61.7377741 L226.758049,61.7377741 L226.758049,70.492625 L223.602967,70.492625 L223.602967,49.7145987 L231.667812,49.7145987 C235.610358,49.7145987 238.123764,52.2537873 238.123764,55.7846425 C238.123764,58.7617303 236.312649,60.6584232 233.975338,61.299875 L238.765962,70.492625 Z M234.967114,55.8133487 C234.967114,53.7715592 233.536407,52.5455461 231.433193,52.5455461 L226.758049,52.5455461 L226.758049,59.053489 L231.433193,59.053489 C233.536407,59.053489 234.967114,57.8567039 234.967114,55.8133487 Z M219.285135,70.492625 L205.993347,70.492625 L205.993347,49.7145987 L219.285135,49.7145987 L219.285135,52.5455461 L209.147906,52.5455461 L209.147906,58.6155899 L217.795903,58.6155899 L217.795903,61.4167873 L209.147906,61.4167873 L209.147906,67.6616776 L219.285135,67.6616776 L219.285135,70.492625 Z M203.129319,49.7145987 L196.233913,70.492625 L193.779554,70.492625 L186.943195,49.7145987 L190.215848,49.7145987 L195.006995,64.8312522 L199.798142,49.7145987 L203.129319,49.7145987 Z M180.926018,70.492364 L180.926018,49.7143377 L184.0811,49.7143377 L184.0811,70.492364 L180.926018,70.492364 Z M175.493509,70.492625 L172.601263,70.492625 L162.989185,55.8723268 L162.989185,70.492625 L159.834103,70.492625 L159.834103,49.7145987 L162.726349,49.7145987 L172.337905,64.3056689 L172.337905,49.7145987 L175.493509,49.7145987 L175.493509,70.492625 Z M154.72494,63.4883789 C154.72494,67.7786421 151.481027,70.6675237 147.24586,70.6675237 C143.009125,70.6675237 139.795519,67.7786421 139.795519,63.4883789 L139.795519,49.7146509 L142.950601,49.7146509 L142.950601,63.3432825 C142.950601,66.1152518 144.644668,67.8370982 147.24586,67.8370982 C149.845484,67.8370982 151.568813,66.1152518 151.568813,63.3432825 L151.568813,49.7146509 L154.72494,49.7146509 L154.72494,63.4883789 Z M285.001392,47.555636 L285.001392,44.4042237 L287.688803,44.4042237 L287.688803,47.555636 L285.001392,47.555636 Z M291.311556,47.555636 L291.311556,44.4042237 L294.000012,44.4042237 L294.000012,47.555636 L291.311556,47.555636 Z M294.153951,33.049275 L290.998347,33.049275 L290.998347,23.9734373 L282.55623,23.9734373 L282.55623,33.049275 L279.399581,33.049275 L279.399581,12.2717706 L282.55623,12.2717706 L282.55623,21.1430118 L290.998347,21.1430118 L290.998347,12.2717706 L294.153951,12.2717706 L294.153951,33.049275 Z M275.191533,26.8337693 C274.490288,30.9773702 271.540041,33.2242781 267.772023,33.2242781 C265.60924,33.2242781 263.7396,32.436686 262.307847,31.0065982 C260.262635,28.9642868 260.291897,26.6589228 260.291897,22.6609404 C260.291897,18.6629579 260.262635,16.3575939 262.307847,14.3147605 C263.7396,12.8846728 265.60924,12.0970807 267.772023,12.0970807 C271.598043,12.0970807 274.462593,14.3434667 275.191533,18.4881114 L271.978972,18.4881114 C271.481517,16.3868219 270.079548,14.9275061 267.772023,14.9275061 C266.545104,14.9275061 265.433667,15.3946333 264.704205,16.1822254 C263.681598,17.2918482 263.447502,18.4881114 263.447502,22.6609404 C263.447502,26.8337693 263.681598,28.0300325 264.704205,29.1391333 C265.433667,29.9272474 266.545104,30.3933307 267.772023,30.3933307 C270.079548,30.3933307 271.511301,28.9345368 272.008235,26.8337693 L275.191533,26.8337693 Z M256.818015,27.1255803 C256.818015,30.9481943 253.692196,33.2243303 249.338935,33.2243303 C246.214161,33.2243303 243.962546,32.4951943 241.976904,30.481589 L244.080117,28.4095276 C245.599656,29.9272996 247.264461,30.3933829 249.397459,30.3933829 C252.115177,30.3933829 253.692196,29.2268697 253.692196,27.2132645 C253.692196,26.3082382 253.429882,25.5493522 252.874424,25.0535189 C252.347707,24.5576855 251.823079,24.353089 250.595638,24.1782425 L248.141802,23.8285496 C246.44669,23.5942031 245.102723,23.0112075 244.197688,22.1646373 C243.174037,21.2011548 242.677626,19.8879794 242.677626,18.1958829 C242.677626,14.5773434 245.307035,12.0971329 249.631034,12.0971329 C252.379581,12.0971329 254.305132,12.7970408 256.088553,14.4609531 L254.072603,16.4453303 C252.786638,15.2193171 251.296883,14.8403961 249.543247,14.8403961 C247.089934,14.8403961 245.745967,16.2407338 245.745967,18.0789706 C245.745967,18.8383785 245.979541,19.5090583 246.533431,20.0048917 C247.059104,20.4720189 247.908227,20.8222338 248.871787,20.9683741 L251.237314,21.318589 C253.166523,21.6103478 254.247131,22.0769531 255.123949,22.8650671 C256.26308,23.8572557 256.818015,25.3452776 256.818015,27.1255803 Z M235.228644,33.0491184 L235.228644,12.271614 L238.384249,12.271614 L238.384249,33.0491184 L235.228644,33.0491184 Z M229.797128,33.049275 L226.904882,33.049275 L217.291759,18.4289768 L217.291759,33.049275 L214.137199,33.049275 L214.137199,12.2717706 L217.0284,12.2717706 L226.641523,26.8628408 L226.641523,12.2717706 L229.797128,12.2717706 L229.797128,33.049275 Z M208.702704,33.049275 L205.547623,33.049275 L205.547623,23.9734373 L197.104461,23.9734373 L197.104461,33.049275 L193.949379,33.049275 L193.949379,12.2717706 L197.104461,12.2717706 L197.104461,21.1430118 L205.547623,21.1430118 L205.547623,12.2717706 L208.702704,12.2717706 L208.702704,33.049275 Z M189.741854,26.8337693 C189.040609,30.9773702 186.089839,33.2242781 182.320776,33.2242781 C180.159038,33.2242781 178.289398,32.436686 176.858168,31.0065982 C174.812433,28.9642868 174.841695,26.6589228 174.841695,22.6609404 C174.841695,18.6629579 174.812433,16.3575939 176.858168,14.3147605 C178.289398,12.8846728 180.159038,12.0970807 182.320776,12.0970807 C186.148363,12.0970807 189.011347,14.3434667 189.741854,18.4881114 L186.527726,18.4881114 C186.031315,16.3868219 184.628824,14.9275061 182.320776,14.9275061 C181.09438,14.9275061 179.983988,15.3946333 179.25348,16.1822254 C178.230352,17.2918482 177.9973,18.4881114 177.9973,22.6609404 C177.9973,26.8337693 178.230352,28.0300325 179.25348,29.1391333 C179.983988,29.9272474 181.09438,30.3933307 182.320776,30.3933307 C184.628824,30.3933307 186.060577,28.9345368 186.556988,26.8337693 L189.741854,26.8337693 Z M171.284417,33.049275 L157.991061,33.049275 L157.991061,12.2717706 L171.284417,12.2717706 L171.284417,15.102718 L161.146143,15.102718 L161.146143,21.1727618 L169.794139,21.1727618 L169.794139,23.9734373 L161.146143,23.9734373 L161.146143,30.2183276 L171.284417,30.2183276 L171.284417,33.049275 Z M154.402952,15.1028224 L148.676986,15.1028224 L148.676986,33.0493794 L145.521904,33.0493794 L145.521904,15.1028224 L139.795415,15.1028224 L139.795415,12.271875 L154.402952,12.271875 L154.402952,15.1028224 Z M312.8806,33.049275 L299.588812,33.049275 L299.588812,12.2717706 L312.8806,12.2717706 L312.8806,15.102718 L302.744417,15.102718 L302.744417,21.1727618 L311.391368,21.1727618 L311.391368,23.9734373 L302.744417,23.9734373 L302.744417,30.2183276 L312.8806,30.2183276 L312.8806,33.049275 Z M164.599855,85.7590724 L159.165464,106.537099 L156.419529,106.537099 L152.182795,91.9752566 L147.975845,106.537099 L145.229387,106.537099 L139.795519,85.7590724 L143.125651,85.7590724 L146.748404,100.613195 L150.926092,85.7590724 L153.468237,85.7590724 L157.645925,100.613195 L161.268678,85.7590724 L164.599855,85.7590724 Z M209.491632,106.53689 L206.600431,106.53689 L196.988875,91.9165917 L196.988875,106.53689 L193.833271,106.53689 L193.833271,85.7588636 L196.725516,85.7588636 L206.337072,100.349934 L206.337072,85.7588636 L209.491632,85.7588636 L209.491632,106.53689 Z M189.516588,106.53689 L176.22271,106.53689 L176.22271,85.7588636 L189.516588,85.7588636 L189.516588,88.5903329 L179.378314,88.5903329 L179.378314,94.6598548 L188.026311,94.6598548 L188.026311,97.4610522 L179.378314,97.4610522 L179.378314,103.706986 L189.516588,103.706986 L189.516588,106.53689 Z M167.633708,106.53736 L167.633708,85.7593333 L170.789835,85.7593333 L170.789835,106.53736 L167.633708,106.53736 Z M313,52.8611907 L307.120498,52.8611907 L307.120498,71 L303.879502,71 L303.879502,52.8611907 L298,52.8611907 L298,50 L313,50 L313,52.8611907 Z M299,71 L291.286394,50 L288.715721,50 L281,71 L284.400076,71 L285.847435,66.7820648 L294.153623,66.7820648 L295.600981,71 L299,71 Z M293.2666,64.0691032 L286.794191,64.0691032 L290.074271,54.7486059 L293.2666,64.0691032 Z M106.649185,0.357782895 C113.189265,0.357782895 118.474733,5.65954605 118.474733,12.1993268 L118.499292,106.875309 C118.499292,113.41509 113.173066,118.716331 106.632986,118.716331 L11.8525105,118.716331 C5.31243038,118.716331 0.00240367279,113.41509 0.00240367279,106.875309 L0.0107642738,12.1993268 C0.0107642738,5.65954605 5.30406978,0.357782895 11.8441499,0.357782895 L106.649185,0.357782895 Z M282,52.8611907 L276.121803,52.8611907 L276.121803,71 L272.880343,71 L272.880343,52.8611907 L267,52.8611907 L267,50 L282,50 L282,52.8611907 Z M260,71 L260,50 L263,50 L263,71 L260,71 Z M25.1260097,70.5563004 L37.7782117,70.5563004 L37.7782117,28.5607829 L25.1260097,28.5607829 L25.1260097,70.5563004 Z M9.11232354,24.8848311 L53.3665523,24.8848311 L53.3665523,12.2473443 L9.11232354,12.2473443 L9.11232354,24.8848311 Z M35.8380297,85.7705548 L31.5908444,85.7705548 L28.3401382,98.9064846 L24.532407,85.7705548 L21.4865356,85.7705548 L17.6782818,98.9064846 L14.4568377,85.7705548 L10.2096524,85.7705548 L15.7746775,106.600774 L19.1722167,106.600774 L23.00921,93.9622434 L26.8462033,106.600774 L30.2437426,106.600774 L35.8380297,85.7705548 Z M106.445918,106.600774 L106.445918,85.7705548 L102.374828,85.7705548 L102.374828,98.5259978 L94.1150765,85.7705548 L90.4834404,85.7705548 L90.4834404,106.600774 L94.5545306,106.600774 L94.5545306,93.8155811 L102.814282,106.600774 L106.445918,106.600774 Z M77.2794387,106.600774 L77.2794387,102.97284 L67.6140614,102.97284 L67.6140614,97.9116864 L75.8445506,97.9116864 L75.8445506,94.2837522 L67.6140614,94.2837522 L67.6140614,89.399011 L77.2794387,89.399011 L77.2794387,85.7705548 L63.5424487,85.7705548 L63.5424487,106.600774 L77.2794387,106.600774 Z M45.5253536,106.600252 L49.5969663,106.600252 L49.5969663,85.7705548 L45.5253536,85.7705548 L45.5253536,106.600252 Z M80.9194354,70.8913794 L80.9152551,58.1087961 C80.7010147,58.0712171 80.5385055,58.0378136 80.3289679,57.9877083 C75.5676057,56.7804846 72.0190531,52.1968969 72.0190531,47.0997303 L72.0399546,12.2473443 L59.2168828,12.2473443 L59.2168828,47.4118443 C59.2168828,59.5869013 68.3884621,69.5980373 80.2500648,70.835011 L80.9194354,70.8913794 Z M84.7585189,58.0905285 L84.7611316,70.8892917 L85.281579,70.8355329 C97.1447492,69.5839452 106.401502,59.4585066 106.388961,47.2829276 L106.388974,12.2473443 L93.4843736,12.2473443 L93.593584,47.0997303 C93.593584,52.1968969 90.0445088,56.7810066 85.281579,57.9877083 C85.093988,58.0325943 84.9513352,58.0555592 84.7585189,58.0905285 Z" id="TU_Logo_text"></path>
            </g>
        </g>
    </g>
</svg>